<?xml version="1.0" encoding="UTF-8" standalone="no"?>
<svg xmlns:rdf="http://www.w3.org/1999/02/22-rdf-syntax-ns#" xmlns="http://www.w3.org/2000/svg" height="1080" width="1920" version="1.1" xmlns:cc="http://creativecommons.org/ns#" xmlns:dc="http://purl.org/dc/elements/1.1/" viewBox="0 0 1920 1080">
<g transform="translate(0 27.638)">
<g transform="matrix(.39229 -.39229 .39229 .39229 19.216 1008.5)">
<g stroke="#333" stroke-width="4" stroke-miterlimit="10">
<path d="m205.36 182.73h18.738c10.092 0 18.271 8.18 18.271 18.271v9.305l-0.062 5.017 2.235 2.236h4.241v-21.01c0-12.433-10.079-22.512-22.511-22.512h-20.837l-0.075 8.693z" fill="#fff"/>
<path d="m205.44 65.231h20.837c12.432 0 22.511-10.078 22.511-22.511v-21.01h-4.241l-2.235 2.236 0.062 5.017v9.305c0 10.092-8.179 18.271-18.271 18.271h-18.738l0.075 8.692z" fill="#fff"/>
<path d="m17.84 69.1c-2.072 0-3.752-1.68-3.752-3.752v-38.269c0-2.072 1.68-3.752 3.752-3.752h5.021c2.072 0 3.752 1.68 3.752 3.752v38.269c0 2.072-1.68 3.752-3.752 3.752h-5.021z" fill="#e2e2e2"/>
<path d="m32.919 86.43c0 2.072-1.68 3.752-3.752 3.752h-13.132c-2.072 0-3.751-1.68-3.751-3.752v-21.386c0-2.072 1.679-3.752 3.751-3.752h13.132c2.072 0 3.752 1.68 3.752 3.752v21.386z" fill="#e2e2e2"/>
</g>
<path fill="#e2e2e2" d="m34.482 217.06c-11.31 0-20.511-9.201-20.511-20.511v-153.75c0-11.31 9.201-20.511 20.511-20.511h161.2c11.31 0 20.511 9.201 20.511 20.511v153.75c0 11.31-9.201 20.511-20.511 20.511h-161.2z"/>
<path fill="#333" d="m195.68 24.284c10.207 0 18.511 8.304 18.511 18.511v153.75c0 10.207-8.304 18.511-18.511 18.511h-161.2c-10.207 0-18.511-8.304-18.511-18.511v-153.75c0-10.207 8.304-18.511 18.511-18.511h161.2m0-4h-161.2c-12.432 0-22.511 10.079-22.511 22.511v153.75c0 12.432 10.079 22.511 22.511 22.511h161.2c12.432 0 22.511-10.079 22.511-22.511v-153.75c0-12.432-10.079-22.511-22.51-22.511z"/>
<path fill="#fff" d="m189.32 29.988h-124.07v60.423c0 3.914-3.173 7.087-7.087 7.087h-36.121v93.042c0 11.219 7.594 18.811 18.812 18.811h148.46c11.218 0 18.812-7.592 18.812-18.811v-141.74c0.01-11.221-7.59-18.812-18.8-18.812zm-128.07 57.423v-57.423h-20.396c-11.218 0-18.812 7.591-18.812 18.812v44.698h33.121c3.914 0 6.087-2.173 6.087-6.087z"/>
<path d="m136.07 104.91c-2.533-3.164-6.088-4.993-9.442-4.993-4.439 0-6.314 2.112-9.396 2.112-3.173 0-5.586-2.107-9.426-2.107-3.771 0-7.78 2.294-10.322 6.212-3.577 5.516-2.972 15.891 2.831 24.73 2.07 3.16 4.843 6.717 8.465 6.748 3.217 0.031 4.131-2.057 8.499-2.081 4.366-0.022 5.193 2.104 8.413 2.073 3.622-0.032 6.545-3.971 8.618-7.131 1.487-2.266 2.039-3.408 3.194-5.97-8.387-3.171-9.732-15.039-1.434-19.593zm-12.811-8.524c1.612-2.072 2.838-4.999 2.395-7.989-2.634 0.182-5.716 1.86-7.515 4.046-1.634 1.988-2.981 4.934-2.457 7.797 2.875 0.085 5.852-1.634 7.577-3.854z" fill-rule="evenodd" clip-rule="evenodd" fill="#e2e2e2"/>
<g stroke="#333" stroke-width="4" stroke-miterlimit="10">
<path d="m219.46 207.16c2.072 0 3.752-1.679 3.752-3.751 0 0-3.752-46.587-3.752-89.1 0-32.336 3.752-72.229 3.752-72.229 0-2.072-1.68-3.752-3.752-3.752h0.231c-2.072 0-3.752 1.68-3.752 3.752 0 0-3.752 27.699-3.752 72.721 0 40.02 3.752 88.607 3.752 88.607 0 2.072 1.68 3.751 3.752 3.751h-0.231z" fill="#fff"/>
<path d="m221.19 204.16c-2.072 0-3.752-1.68-3.752-3.752v-158.33c0-2.072 1.68-3.752 3.752-3.752h-0.232c2.072 0 3.752 1.68 3.752 3.752v158.33c0 2.072-1.68 3.752-3.752 3.752h0.232z" fill="#e2e2e2"/>
<path d="m236.19 207.16c-2.072 0-3.752-1.679-3.752-3.751 0 0 3.752-46.587 3.752-89.1 0-32.336-3.752-72.229-3.752-72.229 0-2.072 1.68-3.752 3.752-3.752h-0.231c2.072 0 3.752 1.68 3.752 3.752 0 0 3.751 27.699 3.751 72.721 0 40.02-3.751 88.607-3.751 88.607 0 2.072-1.68 3.751-3.752 3.751h0.231z" fill="#fff"/>
<path d="m229.48 208.58c-2.07 0.09-3.821-1.514-3.913-3.584l-8.004-162.67c-0.091-2.069 1.514-3.821 3.584-3.911l-0.231 0.01c2.07-0.091 3.821 1.514 3.913 3.584l8.004 162.67c0.092 2.07-1.514 3.822-3.584 3.912l0.231-0.01z" fill="#fff"/>
<path d="m228.69 207.92c-2.072 0-3.752-1.68-3.752-3.752v-158.33c0-2.072 1.68-3.752 3.752-3.752h-0.231c2.072 0 3.752 1.68 3.752 3.752v158.33c0 2.072-1.68 3.752-3.752 3.752h0.231z" fill="#e2e2e2"/>
<path d="m236.19 207.16c-2.072 0-3.752-1.679-3.752-3.751v-161.33c0-2.072 1.68-3.752 3.752-3.752h-0.231c2.072 0 3.752 1.68 3.752 3.752v161.33c0 2.072-1.68 3.751-3.752 3.751h0.231z" fill="#fff"/>
<path d="m220.81 205.32c-2.064-0.188-3.584-2.014-3.396-4.077l15.83-161.39c0.188-2.063 2.014-3.583 4.077-3.395l-0.229-0.021c2.063 0.188 3.41 1.881 3.395 4.129l-15.82 153.14c-0.188 10.267-2.014 11.786-4.077 11.598l0.231 0.021z" fill="#fff"/>
</g>
</g>
<g transform="matrix(.61369 .098401 -.098401 .61369 1579.5 865.36)">
<path fill="#4ba7af" d="m64.514 326.44c3.131 0 5.67-2.539 5.67-5.67 0 0 10.781-96.986 9.654-193.14-0.678-57.84-13.324-104.52-13.654-105.68-0.879-3.096-1.264-4.126-5.67-5.669-3.828-1.341-27.446-1.341-31.918 0-4.471 1.341-4.791 2.573-5.668 5.669-0.33 1.162-12.977 47.843-13.657 105.68-1.127 96.149 9.656 193.14 9.656 193.14 0 3.131 2.537 5.67 5.668 5.67h39.919z"/>
<path fill="#333" d="m44.555 121.79c13.459 0 26.674 3.545 35.289 6.446-0.002-0.202-0.004-0.407-0.006-0.609-0.074-6.392-0.297-12.647-0.631-18.721-7.936-2.833-19.891-5.866-34.652-5.866s-26.717 3.033-34.651 5.866c-0.335 6.073-0.556 12.329-0.632 18.721-0.002 0.202-0.004 0.407-0.006 0.609 8.615-2.901 21.832-6.446 35.289-6.446z"/>
<path fill="#4ba7af" d="m55.227 29.627c-0.5-2.167-1-4-2.166-4h-8.334-8.332c-1.168 0-1.668 1.833-2.168 4-0.499 2.167-3.166 67.834-3.166 73.834s7 10.333 13.666 10.333c6.668 0 13.668-4.333 13.668-10.333s-2.668-71.667-3.168-73.834z"/>
<path fill="#58b6b4" d="m44.727 25.627h-8.332c-1.168 0-1.668 1.833-2.168 4-0.233 1.016-0.943 4.007-1.633 18.141 3.217 0.59 7.238 1.025 12.133 1.025 5.252 0 9.201-0.498 12.129-1.154-0.688-14.084-1.395-16.999-1.629-18.012-0.5-2.167-1-4-2.166-4h-8.334z"/>
<path d="m55.227 29.627c-0.5-2.167-1-4-2.166-4h-8.334-8.332c-1.168 0-1.668 1.833-2.168 4-0.499 2.167-3.166 67.834-3.166 73.834s7 10.333 13.666 10.333c6.668 0 13.668-4.333 13.668-10.333s-2.668-71.667-3.168-73.834z" stroke="#333" stroke-miterlimit="10" stroke-width="4" fill="none"/>
<path d="m64.514 326.44c3.131 0 5.67-2.539 5.67-5.67 0 0 10.781-96.986 9.654-193.14-0.678-57.84-13.324-104.52-13.654-105.68-0.879-3.096-1.264-4.126-5.67-5.669-3.828-1.341-27.446-1.341-31.918 0-4.471 1.341-4.791 2.573-5.668 5.669-0.33 1.162-12.977 47.843-13.657 105.68-1.127 96.149 9.656 193.14 9.656 193.14 0 3.131 2.537 5.67 5.668 5.67h39.919z" stroke="#333" stroke-miterlimit="10" stroke-width="4" fill="none"/>
</g>
<g transform="matrix(.53317 -.086779 .086779 .53317 454.55 858.9)">
<path d="m40.533 408.47c-20.588 0-33.377-12.787-33.377-33.372v-328.44c0-20.585 12.789-33.372 33.377-33.372h126.96c20.589 0 33.379 12.787 33.379 33.372v328.44c0 20.585-12.79 33.372-33.379 33.372h-126.96z" fill-rule="evenodd" clip-rule="evenodd" fill="#333"/>
<path fill="#111" d="m167.5 15.288c19.551 0 31.379 11.825 31.379 31.372v328.44c0 19.441-11.828 31.372-31.379 31.372h-0.678-126.29c-19.549 0-31.377-11.931-31.377-31.372v-328.44c0-19.547 11.828-31.372 31.377-31.372h126.96m0-4h-126.96c-21.818 0-35.374 13.554-35.374 35.372v328.44c0 10.634 3.294 19.556 9.526 25.802 6.246 6.261 15.186 9.57 25.851 9.57h126.29 0.678c10.666 0 19.605-3.31 25.853-9.57 6.232-6.246 9.526-15.168 9.526-25.802v-328.44c0-21.818-13.557-35.372-35.379-35.372z"/>
<path d="m101.07 367.57c-8.457 0-15.312 6.856-15.312 15.312 0 8.458 6.855 15.313 15.312 15.313s15.313-6.855 15.313-15.313c0.001-8.455-6.856-15.312-15.313-15.312zm0 29.121c-7.625 0-13.807-6.182-13.807-13.808s6.182-13.806 13.807-13.806 13.807 6.18 13.807 13.806-6.182 13.808-13.807 13.808z" fill-rule="evenodd" clip-rule="evenodd" fill="#111"/>
<rect fill-rule="evenodd" height="297.33" width="168" clip-rule="evenodd" y="63.452" x="20.016" fill="#111"/>
<path opacity=".1" fill="#fff" d="m70.507 15.288-61.351 61.352v28.723l90.074-90.075h-28.723zm96.99 0h-61.99l-96.351 96.352v98.723l183.83-183.83c-5.34-7.22-14.1-11.242-25.49-11.242z"/>
<path d="m90.236 40.161h26.666c0.92 0 1.667 0.746 1.667 1.667 0 0.92-0.747 1.667-1.667 1.667h-26.666c-0.921 0-1.667-0.747-1.667-1.667 0-0.921 0.746-1.667 1.667-1.667z" fill-rule="evenodd" clip-rule="evenodd" fill="#333"/>
<path d="m72.947 39.828c1.658 0 3.002 1.344 3.002 2.996 0 1.659-1.344 3.004-3.002 3.004-1.654 0-2.998-1.345-2.998-3.004 0-1.652 1.344-2.996 2.998-2.996z" fill-rule="evenodd" clip-rule="evenodd" fill="#333"/>
</g>
<g transform="matrix(.62775 0 0 .63548 661.36 716.51)">
<path fill="#d6d6d6" d="m53.969 656.85c-11.731 0-21.275-9.544-21.275-21.275v-574.2c0-11.731 9.544-21.275 21.275-21.275h843.53c11.73 0 21.274 9.544 21.274 21.275v574.2c0 11.731-9.544 21.275-21.274 21.275h-843.53z"/>
<path fill="#333" d="m897.5 42.099c10.628 0 19.274 8.647 19.274 19.275v574.2c0 10.629-8.646 19.275-19.274 19.275h-843.53c-10.628 0-19.275-8.646-19.275-19.275v-574.2c0-10.628 8.646-19.275 19.275-19.275h843.53m0-4h-843.53c-12.854 0-23.275 10.42-23.275 23.275v574.2c0 12.854 10.42 23.275 23.275 23.275h843.53c12.854 0 23.274-10.422 23.274-23.275v-574.2c0-12.855-10.419-23.275-23.274-23.275z"/>
<path fill="#e2e2e2" d="m902.44 616.35c0 11.875-7.313 19.188-19.188 19.188h-815.03c-11.876 0-19.189-7.313-19.189-19.188v-535.76c0-11.876 7.312-19.188 19.189-19.188h815.03c11.875 0 19.188 7.312 19.188 19.188v535.76z"/>
<path d="m522.08 318.18c-5.935-7.411-14.262-11.694-22.119-11.694-10.4 0-14.794 4.947-22.006 4.947-7.437 0-13.09-4.939-22.084-4.939-8.833 0-18.224 5.372-24.181 14.555-8.377 12.917-6.958 37.22 6.629 57.929 4.857 7.403 11.346 15.732 19.831 15.808 7.541 0.072 9.678-4.816 19.912-4.874 10.23-0.057 12.166 4.927 19.708 4.855 8.485-0.076 15.331-9.301 20.19-16.705 3.482-5.304 4.776-7.981 7.48-13.982-19.645-7.435-22.802-35.236-3.36-45.9zm-30.009-19.968c3.776-4.857 6.648-11.71 5.607-18.716-6.171 0.423-13.39 4.356-17.603 9.48-3.827 4.652-6.984 11.553-5.753 18.258 6.733 0.209 13.704-3.822 17.749-9.022z" fill-rule="evenodd" clip-rule="evenodd" fill="#fff"/>
</g>
<g transform="matrix(.53012 -.054614 .054614 .53012 1651.5 757.18)">
<polygon points="63.386 628.11 54.053 633.36 54.053 618.82 72.72 618.82 72.72 633.36" fill="#bb4d67"/>
<path fill="#333" d="m70.72 620.82v9.124l-7.334-4.127-7.333 4.127v-9.124h14.667m4-4h-4-14.667-4v4 9.124 6.841l5.962-3.355 5.371-3.022 5.372 3.023 5.962 3.354v-6.841-9.124-4z"/>
<path d="m369.4 26.97h-240.94-85.826-14.174v14.174 565.5 14.174h14.174 85.826 240.94c14.984 0 24.173-8.503 24.173-24.174v-545.5c0-14.327-10.688-24.174-24.173-24.174z" stroke="#333" stroke-miterlimit="10" stroke-width="4" fill="#616263"/>
<rect height="137.62" width="369.91" stroke="#333" stroke-miterlimit="10" y="391.94" x="26.454" stroke-width="4" fill="#58b6b4"/>
<path fill="#333" d="m349.16 623.82c-0.306-0.042-0.982-0.408-1.801-1.001l0.966-0.001v-600.87h-1.746c1.049-1.23 2.165-2.433 2.785-2.758h11.188c0.46 0 0.835 0.375 0.835 0.835v602.96c0 0.46-0.375 0.835-0.835 0.835h-11.392z"/>
<path fill="#111" d="m359.38 21.185v600.63h-9.062v-1-596.88-2.758h9.062m1.165-3.999h-11.392c-1.565 0-5.125 4.683-6.773 6.758h3.938v596.88l-3.938 0.003c1.895 2.401 5.208 4.997 6.773 4.997h11.392c1.565 0 2.835-1.27 2.835-2.835v-602.96c0-1.566-1.27-2.835-2.835-2.835z"/>
</g>
<g transform="matrix(.45969 .084347 -.084347 .45969 1335.9 746.92)">
<path fill="#fef7ce" d="m449.99 595.05c0 4.696-3.808 8.504-8.504 8.504h-405.47c-4.696 0-8.504-3.808-8.504-8.504v-566.46c0-4.697 3.808-8.505 8.504-8.505h405.47c4.696 0 8.504 3.808 8.504 8.505v566.46z"/>
<g stroke="#58b6b4" stroke-width="2" stroke-miterlimit="10" fill="none">
<line y2="56.076" y1="56.076" x2="446.62" x1="30.623"/>
<line y2="86.076" y1="86.076" x2="446.62" x1="30.623"/>
<line y2="116.08" y1="116.08" x2="446.62" x1="30.623"/>
<line y2="146.08" y1="146.08" x2="446.62" x1="30.623"/>
<line y2="176.08" y1="176.08" x2="446.62" x1="30.623"/>
<line y2="206.08" y1="206.08" x2="446.62" x1="30.623"/>
<line y2="236.08" y1="236.08" x2="446.62" x1="30.623"/>
<line y2="266.08" y1="266.08" x2="446.62" x1="30.623"/>
<line y2="296.08" y1="296.08" x2="446.62" x1="30.623"/>
<line y2="326.08" y1="326.08" x2="446.62" x1="30.623"/>
<line y2="356.08" y1="356.08" x2="446.62" x1="30.623"/>
<line y2="386.08" y1="386.08" x2="446.62" x1="30.623"/>
<line y2="416.08" y1="416.08" x2="446.62" x1="30.623"/>
<line y2="446.08" y1="446.08" x2="446.62" x1="30.623"/>
<line y2="476.08" y1="476.08" x2="446.62" x1="30.623"/>
<line y2="506.08" y1="506.08" x2="446.62" x1="30.623"/>
<line y2="536.08" y1="536.08" x2="446.62" x1="30.623"/>
<line y2="566.08" y1="566.08" x2="446.62" x1="30.623"/>
</g>
<line stroke-width="4" y2="603.55" y1="20.081" stroke="#f77f5b" stroke-miterlimit="10" x2="104.92" x1="104.92" fill="none"/>
<path fill="#333" d="m441.49 24.081c2.483 0 4.504 2.021 4.504 4.505v566.46c0 2.483-2.021 4.504-4.504 4.504h-405.47c-2.483 0-4.504-2.021-4.504-4.504v-566.46c0-2.484 2.021-4.505 4.504-4.505h405.47m0-4h-405.47c-4.696 0-8.504 3.808-8.504 8.505v566.46c0 4.696 3.808 8.504 8.504 8.504h405.47c4.696 0 8.504-3.808 8.504-8.504v-566.46c-0.001-4.697-3.808-8.505-8.505-8.505z"/>
<path fill="#333" d="m59.269 47.985c1.656 0 3 1.344 3 3v10c0 1.656-1.344 3-3 3h-10.5c-1.656 0-3-1.344-3-3v-10c0-1.656 1.344-3 3-3h10.5z"/>
<path d="m52.673 52.134s-9.82-1.818-21.096-1.818c-11.273 0-18.822 2.184-18.822 3.639 0 1.453-4.884 4.363 14.757 4.363" stroke="#333" stroke-miterlimit="10" stroke-width="4" fill="none"/>
<path d="m52.673 59.134s-9.82-1.818-21.096-1.818c-11.273 0-18.822 2.184-18.822 3.639 0 1.453-5.123 4.361 14.518 4.361" stroke="#333" stroke-miterlimit="10" stroke-width="4" fill="none"/>
<path fill="#333" d="m59.269 77.985c1.656 0 3 1.344 3 3v10c0 1.656-1.344 3-3 3h-10.5c-1.656 0-3-1.344-3-3v-10c0-1.656 1.344-3 3-3h10.5z"/>
<path d="m52.673 82.134s-9.82-1.818-21.096-1.818c-11.273 0-18.822 2.184-18.822 3.639 0 1.453-4.884 4.363 14.757 4.363" stroke="#333" stroke-miterlimit="10" stroke-width="4" fill="none"/>
<path d="m52.673 89.134s-9.82-1.818-21.096-1.818c-11.273 0-18.822 2.184-18.822 3.639 0 1.453-5.123 4.361 14.518 4.361" stroke="#333" stroke-miterlimit="10" stroke-width="4" fill="none"/>
<path fill="#333" d="m59.269 107.98c1.656 0 3 1.344 3 3v10c0 1.656-1.344 3-3 3h-10.5c-1.656 0-3-1.344-3-3v-10c0-1.656 1.344-3 3-3h10.5z"/>
<path d="m52.673 112.13s-9.82-1.818-21.096-1.818c-11.273 0-18.822 2.184-18.822 3.639 0 1.453-4.884 4.363 14.757 4.363" stroke="#333" stroke-miterlimit="10" stroke-width="4" fill="none"/>
<path d="m52.673 119.13s-9.82-1.818-21.096-1.818c-11.273 0-18.822 2.184-18.822 3.639 0 1.453-5.123 4.361 14.518 4.361" stroke="#333" stroke-miterlimit="10" stroke-width="4" fill="none"/>
<path fill="#333" d="m59.269 137.98c1.656 0 3 1.344 3 3v10c0 1.656-1.344 3-3 3h-10.5c-1.656 0-3-1.344-3-3v-10c0-1.656 1.344-3 3-3h10.5z"/>
<path d="m52.673 142.13s-9.82-1.818-21.096-1.818c-11.273 0-18.822 2.184-18.822 3.639 0 1.453-4.884 4.363 14.757 4.363" stroke="#333" stroke-miterlimit="10" stroke-width="4" fill="none"/>
<path d="m52.673 149.13s-9.82-1.818-21.096-1.818c-11.273 0-18.822 2.184-18.822 3.639 0 1.453-5.123 4.361 14.518 4.361" stroke="#333" stroke-miterlimit="10" stroke-width="4" fill="none"/>
<path fill="#333" d="m59.269 167.98c1.656 0 3 1.344 3 3v10c0 1.656-1.344 3-3 3h-10.5c-1.656 0-3-1.344-3-3v-10c0-1.656 1.344-3 3-3h10.5z"/>
<path d="m52.673 172.13s-9.82-1.818-21.096-1.818c-11.273 0-18.822 2.184-18.822 3.639 0 1.453-4.884 4.363 14.757 4.363" stroke="#333" stroke-miterlimit="10" stroke-width="4" fill="none"/>
<path d="m52.673 179.13s-9.82-1.818-21.096-1.818c-11.273 0-18.822 2.184-18.822 3.639 0 1.453-5.123 4.361 14.518 4.361" stroke="#333" stroke-miterlimit="10" stroke-width="4" fill="none"/>
<path fill="#333" d="m59.269 197.98c1.656 0 3 1.344 3 3v10c0 1.656-1.344 3-3 3h-10.5c-1.656 0-3-1.344-3-3v-10c0-1.656 1.344-3 3-3h10.5z"/>
<path d="m52.673 202.13s-9.82-1.818-21.096-1.818c-11.273 0-18.822 2.184-18.822 3.639 0 1.453-4.884 4.363 14.757 4.363" stroke="#333" stroke-miterlimit="10" stroke-width="4" fill="none"/>
<path d="m52.673 209.13s-9.82-1.818-21.096-1.818c-11.273 0-18.822 2.184-18.822 3.639 0 1.453-5.123 4.361 14.518 4.361" stroke="#333" stroke-miterlimit="10" stroke-width="4" fill="none"/>
<path fill="#333" d="m59.269 227.98c1.656 0 3 1.344 3 3v10c0 1.656-1.344 3-3 3h-10.5c-1.656 0-3-1.344-3-3v-10c0-1.656 1.344-3 3-3h10.5z"/>
<path d="m52.673 232.13s-9.82-1.818-21.096-1.818c-11.273 0-18.822 2.184-18.822 3.639 0 1.453-4.884 4.363 14.757 4.363" stroke="#333" stroke-miterlimit="10" stroke-width="4" fill="none"/>
<path d="m52.673 239.13s-9.82-1.818-21.096-1.818c-11.273 0-18.822 2.184-18.822 3.639 0 1.453-5.123 4.361 14.518 4.361" stroke="#333" stroke-miterlimit="10" stroke-width="4" fill="none"/>
<path fill="#333" d="m59.269 257.98c1.656 0 3 1.344 3 3v10c0 1.656-1.344 3-3 3h-10.5c-1.656 0-3-1.344-3-3v-10c0-1.656 1.344-3 3-3h10.5z"/>
<path d="m52.673 262.13s-9.82-1.818-21.096-1.818c-11.273 0-18.822 2.184-18.822 3.639 0 1.453-4.884 4.363 14.757 4.363" stroke="#333" stroke-miterlimit="10" stroke-width="4" fill="none"/>
<path d="m52.673 269.13s-9.82-1.818-21.096-1.818c-11.273 0-18.822 2.184-18.822 3.639 0 1.453-5.123 4.361 14.518 4.361" stroke="#333" stroke-miterlimit="10" stroke-width="4" fill="none"/>
<path fill="#333" d="m59.269 287.98c1.656 0 3 1.344 3 3v10c0 1.656-1.344 3-3 3h-10.5c-1.656 0-3-1.344-3-3v-10c0-1.656 1.344-3 3-3h10.5z"/>
<path d="m52.673 292.13s-9.82-1.818-21.096-1.818c-11.273 0-18.822 2.185-18.822 3.639 0 1.453-4.884 4.363 14.757 4.363" stroke="#333" stroke-miterlimit="10" stroke-width="4" fill="none"/>
<path d="m52.673 299.13s-9.82-1.818-21.096-1.818c-11.273 0-18.822 2.185-18.822 3.639 0 1.453-5.123 4.361 14.518 4.361" stroke="#333" stroke-miterlimit="10" stroke-width="4" fill="none"/>
<path fill="#333" d="m59.269 317.98c1.656 0 3 1.344 3 3v10c0 1.656-1.344 3-3 3h-10.5c-1.656 0-3-1.344-3-3v-10c0-1.656 1.344-3 3-3h10.5z"/>
<path d="m52.673 322.13s-9.82-1.818-21.096-1.818c-11.273 0-18.822 2.185-18.822 3.639 0 1.453-4.884 4.363 14.757 4.363" stroke="#333" stroke-miterlimit="10" stroke-width="4" fill="none"/>
<path d="m52.673 329.13s-9.82-1.818-21.096-1.818c-11.273 0-18.822 2.185-18.822 3.639 0 1.453-5.123 4.361 14.518 4.361" stroke="#333" stroke-miterlimit="10" stroke-width="4" fill="none"/>
<path fill="#333" d="m59.269 347.98c1.656 0 3 1.344 3 3v10c0 1.656-1.344 3-3 3h-10.5c-1.656 0-3-1.344-3-3v-10c0-1.656 1.344-3 3-3h10.5z"/>
<path d="m52.673 352.13s-9.82-1.818-21.096-1.818c-11.273 0-18.822 2.185-18.822 3.639 0 1.453-4.884 4.363 14.757 4.363" stroke="#333" stroke-miterlimit="10" stroke-width="4" fill="none"/>
<path d="m52.673 359.13s-9.82-1.818-21.096-1.818c-11.273 0-18.822 2.185-18.822 3.639 0 1.453-5.123 4.361 14.518 4.361" stroke="#333" stroke-miterlimit="10" stroke-width="4" fill="none"/>
<path fill="#333" d="m59.269 377.98c1.656 0 3 1.344 3 3v10c0 1.656-1.344 3-3 3h-10.5c-1.656 0-3-1.344-3-3v-10c0-1.656 1.344-3 3-3h10.5z"/>
<path d="m52.673 382.13s-9.82-1.818-21.096-1.818c-11.273 0-18.822 2.185-18.822 3.639 0 1.453-4.884 4.363 14.757 4.363" stroke="#333" stroke-miterlimit="10" stroke-width="4" fill="none"/>
<path d="m52.673 389.13s-9.82-1.818-21.096-1.818c-11.273 0-18.822 2.185-18.822 3.639 0 1.453-5.123 4.361 14.518 4.361" stroke="#333" stroke-miterlimit="10" stroke-width="4" fill="none"/>
<path fill="#333" d="m59.269 407.98c1.656 0 3 1.344 3 3v10c0 1.656-1.344 3-3 3h-10.5c-1.656 0-3-1.344-3-3v-10c0-1.656 1.344-3 3-3h10.5z"/>
<path d="m52.673 412.13s-9.82-1.818-21.096-1.818c-11.273 0-18.822 2.185-18.822 3.639 0 1.453-4.884 4.363 14.757 4.363" stroke="#333" stroke-miterlimit="10" stroke-width="4" fill="none"/>
<path d="m52.673 419.13s-9.82-1.818-21.096-1.818c-11.273 0-18.822 2.185-18.822 3.639 0 1.453-5.123 4.361 14.518 4.361" stroke="#333" stroke-miterlimit="10" stroke-width="4" fill="none"/>
<path fill="#333" d="m59.269 437.98c1.656 0 3 1.344 3 3v10c0 1.656-1.344 3-3 3h-10.5c-1.656 0-3-1.344-3-3v-10c0-1.656 1.344-3 3-3h10.5z"/>
<path d="m52.673 442.13s-9.82-1.818-21.096-1.818c-11.273 0-18.822 2.185-18.822 3.639 0 1.453-4.884 4.363 14.757 4.363" stroke="#333" stroke-miterlimit="10" stroke-width="4" fill="none"/>
<path d="m52.673 449.13s-9.82-1.818-21.096-1.818c-11.273 0-18.822 2.185-18.822 3.639 0 1.453-5.123 4.361 14.518 4.361" stroke="#333" stroke-miterlimit="10" stroke-width="4" fill="none"/>
<path fill="#333" d="m59.269 467.98c1.656 0 3 1.344 3 3v10c0 1.656-1.344 3-3 3h-10.5c-1.656 0-3-1.344-3-3v-10c0-1.656 1.344-3 3-3h10.5z"/>
<path d="m52.673 472.13s-9.82-1.818-21.096-1.818c-11.273 0-18.822 2.185-18.822 3.639 0 1.453-4.884 4.363 14.757 4.363" stroke="#333" stroke-miterlimit="10" stroke-width="4" fill="none"/>
<path d="m52.673 479.13s-9.82-1.818-21.096-1.818c-11.273 0-18.822 2.185-18.822 3.639 0 1.453-5.123 4.361 14.518 4.361" stroke="#333" stroke-miterlimit="10" stroke-width="4" fill="none"/>
<path fill="#333" d="m59.269 497.98c1.656 0 3 1.344 3 3v10c0 1.656-1.344 3-3 3h-10.5c-1.656 0-3-1.344-3-3v-10c0-1.656 1.344-3 3-3h10.5z"/>
<path d="m52.673 502.13s-9.82-1.818-21.096-1.818c-11.273 0-18.822 2.185-18.822 3.639 0 1.453-4.884 4.363 14.757 4.363" stroke="#333" stroke-miterlimit="10" stroke-width="4" fill="none"/>
<path d="m52.673 509.13s-9.82-1.818-21.096-1.818c-11.273 0-18.822 2.185-18.822 3.639 0 1.453-5.123 4.361 14.518 4.361" stroke="#333" stroke-miterlimit="10" stroke-width="4" fill="none"/>
<path fill="#333" d="m59.269 527.98c1.656 0 3 1.344 3 3v10c0 1.656-1.344 3-3 3h-10.5c-1.656 0-3-1.344-3-3v-10c0-1.656 1.344-3 3-3h10.5z"/>
<path d="m52.673 532.13s-9.82-1.818-21.096-1.818c-11.273 0-18.822 2.185-18.822 3.639 0 1.453-4.884 4.363 14.757 4.363" stroke="#333" stroke-miterlimit="10" stroke-width="4" fill="none"/>
<path d="m52.673 539.13s-9.82-1.818-21.096-1.818c-11.273 0-18.822 2.185-18.822 3.639 0 1.453-5.123 4.361 14.518 4.361" stroke="#333" stroke-miterlimit="10" stroke-width="4" fill="none"/>
<path fill="#333" d="m59.269 557.98c1.656 0 3 1.344 3 3v10c0 1.656-1.344 3-3 3h-10.5c-1.656 0-3-1.344-3-3v-10c0-1.656 1.344-3 3-3h10.5z"/>
<path d="m52.673 562.13s-9.82-1.818-21.096-1.818c-11.273 0-18.822 2.185-18.822 3.639 0 1.453-4.884 4.363 14.757 4.363" stroke="#333" stroke-miterlimit="10" stroke-width="4" fill="none"/>
<path d="m52.673 569.13s-9.82-1.818-21.096-1.818c-11.273 0-18.822 2.185-18.822 3.639 0 1.453-5.123 4.361 14.518 4.361" stroke="#333" stroke-miterlimit="10" stroke-width="4" fill="none"/>
</g>
<g transform="matrix(.59070 0 0 .59070 336.95 560.02)">
<circle cy="184.88" cx="166.18" r="113.39" fill="#333"/>
<path fill="#fcc865" d="m166.18 296.26c-61.418 0-111.39-49.968-111.39-111.39 0-61.418 49.968-111.39 111.39-111.39 61.418 0 111.39 49.967 111.39 111.39-0.001 61.418-49.968 111.39-111.39 111.39zm0-206.39c-52.383 0-95 42.617-95 95s42.617 95 95 95 95-42.617 95-95-42.618-95-95-95z"/>
<path fill="#333" d="m166.18 75.49c29.218 0 56.688 11.378 77.348 32.039 20.66 20.66 32.038 48.129 32.038 77.347s-11.378 56.688-32.038 77.348-48.13 32.038-77.348 32.038-56.688-11.378-77.348-32.038-32.038-48.13-32.038-77.348 11.378-56.687 32.038-77.347c20.66-20.661 48.13-32.039 77.348-32.039m0 206.39c53.486 0 97-43.514 97-97s-43.514-97-97-97-97 43.514-97 97 43.513 97 97 97m0-210.39c-62.621 0-113.39 50.765-113.39 113.39 0 62.621 50.765 113.39 113.39 113.39 62.621 0 113.39-50.765 113.39-113.39 0-62.621-50.765-113.39-113.39-113.39zm0 206.39c-51.363 0-93-41.637-93-93s41.637-93 93-93 93 41.637 93 93-41.637 93-93 93z"/>
<polygon points="106.38 174.11 111.62 180.13 113.09 185.76 111.5 191.9 22.772 212.19 -3.957 207.14 16.928 191.38" fill="#fef7ce"/>
<path fill="#333" d="m105.63 176.29 4.178 4.8 1.219 4.674-1.152 4.46-87.137 19.927-21.881-4.141 16.908-12.758 87.865-16.962m1.505-4.364-91.039 17.574-24.861 18.76 31.58 5.977 90.324-20.655 2.021-7.822-1.718-6.587-6.307-7.247z"/>
<path d="m22.929 212.99c-0.404-3.721 2.155-6.584 5.176-7.884-3.443-2.955-3.866-5.903-2.732-10.133-4.819-0.369-6.319-1.348-8.694-4.573" stroke="#333" stroke-miterlimit="10" stroke-width="2" fill="none"/>
<path fill="#333" d="m-8.769 208.26 17.991 3.404s2.45-4.498 1.352-7.948c-1.101-3.451-5.782-5.689-5.782-5.689l-13.561 10.24z"/>
<line stroke-width="2" y2="200.2" y1="185.76" stroke="#333" stroke-linecap="round" stroke-miterlimit="10" x2="49.865" x1="115.16" fill="none"/>
<line stroke-width="2" y2="191.42" y1="179.09" stroke="#333" stroke-linecap="round" stroke-miterlimit="10" x2="47.299" x1="112.58" fill="none"/>
<polygon points="185.59 160.07 173.16 147.38 175.75 74.152 194.91 72.017" fill="#535454"/>
<path fill="#333" d="m192.66 74.28-8.61 81.354-8.858-9.042 2.491-70.644 14.977-1.668m4.502-4.526-23.355 2.602-2.673 75.811 16 16.333 10.028-94.746z"/>
<path fill="#58b6b4" d="m186.21 78.989c-3.012 0-6.282-1.548-9.999-4.732-3.604-3.087-4.562-13.727-2.629-29.191 1.621-12.969 4.857-25.99 6.138-29.333 1.926-5.032 1.926-5.032 5.886-5.664 0.954-0.152 1.737-0.227 2.395-0.227 2.19 0 2.505 0.504 3.958 4.467l0.427 1.157c2.282 6.087 10.827 50.438 4.923 56.883-4.208 4.592-7.63 6.64-11.099 6.64z"/>
<path fill="#333" d="m188 11.842c0.441 0 0.668 0.045 0.757 0.069 0.338 0.402 0.883 1.887 1.323 3.088 0.137 0.373 0.28 0.762 0.433 1.168 0.777 2.074 3.646 14.367 5.44 27.75 3.116 23.242 0.014 26.936-0.12 27.082-3.796 4.143-6.764 5.991-9.623 5.991-2.514 0-5.359-1.391-8.698-4.251-2.346-2.01-4.089-10.27-1.945-27.424 1.602-12.811 4.771-25.602 6.021-28.866 1.093-2.855 1.592-3.69 1.803-3.876 0.287-0.169 1.584-0.376 2.531-0.528 0.836-0.135 1.535-0.203 2.078-0.203m0-4c-0.766 0-1.658 0.083-2.71 0.251-4.438 0.709-5.112 0.848-7.438 6.924-2.706 7.066-12.99 52.148-2.942 60.758 4.264 3.653 7.941 5.214 11.301 5.214 4.557 0 8.526-2.872 12.572-7.289 7.03-7.674-2.494-53.52-4.524-58.937-1.711-4.56-2.188-6.921-6.259-6.921z"/>
<polygon points="158.65 133.4 87.994 116.75 97.162 94.89 157.18 118.08" fill="#d6d6d6"/>
<path fill="#333" d="m98.255 97.456 57.056 22.046 1.08 11.316-65.639-15.471 7.503-17.891m-2.186-5.133-10.833 25.833 75.667 17.834-1.846-19.329-62.988-24.338z"/>
<path fill="#535454" d="m87.817 116.4c-0.728 0-1.473-0.07-2.216-0.208-7.066-1.314-7.066-1.314-12.135-2.786-10.343-3.003-8.585-11.979-8.127-13.747 2.025-7.832 7.774-10.611 12.082-10.611 0.948 0 1.886 0.125 2.784 0.372 3.363 0.925 7.056 2.152 10.022 3.138 2.157 0.717 4.021 1.337 5.306 1.694 0.305 0.112 1.268 1.035 2.236 3.155 1.42 3.103 2.309 7.67 1.096 10.877-1.865 4.93-6.201 8.116-11.048 8.116z"/>
<path fill="#333" d="m77.422 91.046c0.77 0 1.527 0.101 2.254 0.301 3.312 0.911 6.977 2.129 9.922 3.107 1.993 0.663 3.738 1.243 5.042 1.621 1.462 1.401 3.768 7.767 2.355 11.5-1.568 4.145-5.171 6.823-9.178 6.823-0.604 0-1.228-0.059-1.85-0.174-6.97-1.296-6.97-1.296-11.949-2.742-2.11-0.613-8.833-3.24-6.743-11.324 1.741-6.725 6.553-9.112 10.147-9.112m0-4c-5.841 0-11.922 4.004-14.019 12.11-2.5 9.666 4.333 14.667 9.5 16.167s5.166 1.5 12.333 2.833c0.88 0.164 1.741 0.242 2.581 0.242 6.003 0 10.872-3.999 12.919-9.408 2.333-6.166-1.667-15.834-4.667-16.667s-9.525-3.236-15.333-4.833c-1.076-0.296-2.19-0.444-3.314-0.444z"/>
<path fill="#535454" d="m75.727 112.86c-0.923 0-1.863-0.108-2.795-0.321-0.559-0.128-0.935-0.198-1.238-0.254-0.609-0.113-0.79-0.147-2.116-0.71-2.879-1.937-5.883-5.559-4.237-11.919 2.024-7.827 7.771-10.604 12.076-10.604 0.868 0 1.729 0.105 2.559 0.312l0.001-0.002c9.615 3.129 8.224 12.13 7.567 14.819-0.889 3.639-5.488 8.679-11.817 8.679z"/>
<path fill="#333" d="m77.416 91.054c0.629 0 1.253 0.068 1.856 0.202 0.166 0.059 0.32 0.104 0.463 0.14 2.734 0.987 7.895 3.995 5.865 12.313-0.383 1.568-1.634 3.373-3.264 4.709-1.359 1.115-3.61 2.443-6.61 2.443-0.772 0-1.562-0.091-2.35-0.271-0.596-0.136-0.995-0.211-1.318-0.271-0.448-0.083-0.565-0.105-1.517-0.507-3.241-2.254-4.341-5.5-3.267-9.655 1.74-6.719 6.55-9.104 10.142-9.103m0-4c-5.839 0-11.916 3.998-14.013 12.103-1.833 7.088 1.355 11.658 5.222 14.188 2.32 0.991 1.962 0.712 3.861 1.146 1.111 0.254 2.194 0.371 3.24 0.371 7.184 0 12.62-5.532 13.76-10.204 1.667-6.833-0.25-14.417-8.917-17.203-0.082-0.026-0.117-0.036-0.123-0.036-0.004 0 0.002 0.003 0.014 0.008 0.037 0.009 0.073 0.019 0.109 0.028 0.107 0.043 0.141 0.059 0.134 0.059-0.014 0-0.189-0.063-0.243-0.087-0.991-0.249-2.015-0.373-3.044-0.373z"/>
<path fill="#535454" d="m59.068 95.029c1.283-4.045 7.071-7.989 11.646-6.345 4.576 1.643 7.878 2.621 8.986 3.022 1.108 0.404 4.203 5.908 2.548 9.882-1.656 3.973-4.772 6.788-8.799 6.021-4.024-0.769-6.372-1.003-9.631-2.496-3.258-1.493-5.815-6.727-4.75-10.084z"/>
<path fill="#616263" d="m70.136 97.478c0.538-2.364-0.636-8.396-2.545-8.907-0.128-0.033-0.304-0.081-0.52-0.142-3.591 0.634-7.048 3.588-8.003 6.601-0.905 2.851 0.806 7.046 3.338 9.164 0.037 0.01 0.085 0.015 0.117 0.024 1.964 0.597 6.898-3.604 7.613-6.74z"/>
<path fill="#333" d="m68.455 92.302c0.33 0 0.636 0.05 0.908 0.147 3.086 1.108 5.6 1.918 7.263 2.454 0.35 0.113 0.666 0.215 0.937 0.303 0.689 1.1 1.542 3.528 0.994 4.843-0.36 0.865-1.699 3.686-3.797 3.686-0.178 0-0.366-0.019-0.56-0.056-0.714-0.136-1.377-0.256-2.002-0.369-2.793-0.506-4.479-0.811-6.713-1.834-1.571-0.72-3.011-3.958-2.604-5.238 0.551-1.735 3.285-3.936 5.574-3.936m-0.001-4c-4.048 0-8.308 3.329-9.386 6.728-1.065 3.356 1.491 8.591 4.751 10.084 3.259 1.493 5.606 1.728 9.631 2.496 0.448 0.085 0.885 0.126 1.31 0.126 3.393 0 6.018-2.617 7.489-6.147 1.655-3.974-1.439-9.478-2.548-9.882-1.108-0.401-4.41-1.38-8.986-3.022-0.731-0.263-1.491-0.383-2.261-0.383z"/>
<g stroke="#333" stroke-miterlimit="10">
<path d="m118.74 52.093s-4.979 2.46-4.084 10.036c0.896 7.576 4.954 20.351 20.025 40.801 4.973 6.746 4.428-1.173 2.832-3.89-2.012-3.425-10.633-16.274-11.624-19.648s2.691-3.59 2.691-3.59l-4.222-17.017s-3.696 0.904-4.562-0.364c-0.864-1.269 0.876-5.81-1.056-6.328z" stroke-width="2" fill="#58b6b4"/>
<g stroke-width="4">
<polygon points="159.08 80.3 135.18 86.551 159.47 161.5 170.59 144.09" fill="#535454"/>
<path d="m133.88 47.109c4.729-2.401 16.852-2.972 20.677 6.861 3.826 9.832 8.385 22.71 8.385 22.71s-4.4 8.653-11.977 11.792-15.794-1.922-15.794-1.922-6.982-16.378-9.434-21.698 2.145-14.698 8.143-17.743z" fill="#4f8699"/>
<path d="m144.91 71.565c7.795-3.323 11.009-12.01 9.209-18.61-0.666-1.378-1.507-2.527-2.474-3.472-2.045-1.456-5.234-2.713-8.779-3.771-3.528-0.331-6.939 0.361-8.978 1.396-5.998 3.045-10.594 12.423-8.143 17.743 1.988 4.161 10.832 10.266 19.165 6.714z" fill="#58b6b4"/>
</g>
</g>
<path fill="#d6d6d6" d="m132.06 38.768c4.88-1.582 12.827 1.334 14.429 6.988 1.602 5.653 2.963 9.588 3.347 10.961 0.383 1.372-2.853 8.286-7.923 9.452-5.069 1.166-10.028 0.082-12.104-4.415s-3.495-6.97-4.319-11.224 2.522-10.448 6.57-11.762z"/>
<path fill="#fff" d="m137.44 51.37c2.701-1.133 7.806-6.529 6.965-8.765-0.056-0.149-0.133-0.355-0.225-0.61-3.149-3.086-8.482-4.406-12.117-3.228-3.438 1.115-6.359 5.749-6.66 9.726 0.016 0.043 0.044 0.095 0.058 0.134 0.794 2.35 8.393 4.246 11.979 2.743z"/>
<path fill="#333" d="m134.98 42.34c3.02 0 6.908 1.85 7.66 4.506 1.073 3.787 2.04 6.816 2.68 8.82 0.178 0.556 0.334 1.045 0.455 1.436-0.521 1.471-2.555 4.662-4.759 5.169-0.961 0.221-1.886 0.333-2.751 0.333-3.659 0-4.537-1.901-4.825-2.526-0.365-0.791-0.71-1.52-1.035-2.207-1.499-3.167-2.403-5.078-2.989-8.101-0.455-2.35 1.793-6.52 3.878-7.197 0.469-0.153 1.052-0.233 1.686-0.233m-0.001-4c-1.037 0-2.029 0.139-2.919 0.427-4.049 1.314-7.396 7.509-6.571 11.763s2.243 6.727 4.319 11.224c1.57 3.401 4.789 4.85 8.457 4.85 1.183 0 2.412-0.15 3.647-0.435 5.07-1.166 8.306-8.08 7.923-9.452-0.384-1.373-1.745-5.308-3.347-10.961-1.308-4.624-6.86-7.416-11.509-7.416z"/>
<path fill="#f77f5b" d="m185.2 190.17s61.978-40.104 83.784-51.889c21.806-11.784 40-17.708 43.414-12.312 3.413 5.398-13.744 24.626-32.74 36.882s-79.521 41.896-79.521 41.896l-14.937-14.577z"/>
<path fill="#fcc865" d="m276.4 151.16c4.838 4.838 13.771 6.146 19.917 0s20.184-22.394 15.967-26.698-26.884 5.028-33.384 8.695-5.333 15.17-2.5 18.003z"/>
<path fill="#333" d="m304.86 130.31c-1.752-3.146 2.26-5.085 6.475-5.777 3.13-0.514 3.49 1.745 1.891 4.103-1.602 2.358-6.668 4.722-8.366 1.674z"/>
<path d="m185.2 190.17s61.978-40.104 83.784-51.889c21.806-11.784 40-17.708 43.414-12.312 3.413 5.398-13.744 24.626-32.74 36.882s-79.521 41.896-79.521 41.896l-14.937-14.577z" stroke="#333" stroke-miterlimit="10" stroke-width="4" fill="none"/>
<polygon points="306.73 111.08 201.9 194.97 186.06 188.52 291.48 95.748 317.32 87.178" fill="#fef7ce"/>
<path fill="#333" d="m313.66 90.499-8.56 19.321-103.53 82.856-11.763-4.788 102.69-90.37 21.157-7.019m7.318-6.642-30.506 10.12-108.16 95.179 19.926 8.109 106.12-84.933 12.615-28.475z"/>
<path d="m290.97 95.122c2.162 3.056 1.315 6.802-0.693 9.405 4.445 0.91 6.248 3.282 7.312 7.529 4.392-2.019 6.179-1.893 9.821-0.228" stroke="#333" stroke-miterlimit="10" stroke-width="2" fill="none"/>
<path fill="#333" d="m320.98 83.857-17.379 5.766s0.044 5.122 2.68 7.604c2.639 2.481 7.818 2.164 7.818 2.164l6.881-15.534z"/>
<line stroke-width="2" y2="119.39" y1="190.4" stroke="#333" stroke-linecap="round" stroke-miterlimit="10" x2="273.64" x1="193.57" fill="none"/>
<line stroke-width="2" y2="125.81" y1="189.16" stroke="#333" stroke-linecap="round" stroke-miterlimit="10" x2="280.15" x1="201.45" fill="none"/>
<g stroke="#333" stroke-width="4" stroke-miterlimit="10">
<polygon points="79.235 122.36 74.735 151.16 158.64 157.5 149.14 132" fill="#535454"/>
<path d="m40.311 135.53c-0.092-5.304 4.695-16.456 15.211-15.597s27.091 3.39 27.091 3.39 5.857 7.742 5.367 15.928-8.633 13.363-8.633 13.363-20.783-1.882-26.64-2.005c-5.857-0.12-12.281-8.354-12.396-15.079z" fill="#4f8699"/>
<path d="m67.123 136.31c0.421-8.463-5.986-15.151-12.709-16.42-1.531-0.002-2.933 0.252-4.204 0.708-2.205 1.202-4.729 3.521-7.229 6.247-1.842 3.028-2.71 6.398-2.67 8.685 0.115 6.725 6.539 14.959 12.396 15.079 4.609 0.034 13.967-5.251 14.416-14.299z" fill="#58b6b4"/>
</g>
<path fill="#d6d6d6" d="m30.032 133.11c0.76-5.437 7.286-11.72 13.479-10.616 6.189 1.104 10.614 1.637 12.116 1.908 1.498 0.274 6.641 6.624 5.39 12.05-1.251 5.425-4.615 9.69-9.914 9.583-5.3-0.106-8.345 0.102-12.825-1.094-4.48-1.197-8.876-7.318-8.246-11.831z"/>
<path fill="#fff" d="m44.678 133.83c0.175-3.13-2.632-10.567-5.177-10.806-0.169-0.016-0.404-0.039-0.692-0.067-4.444 1.586-8.21 6.101-8.776 10.149-0.536 3.833 2.558 8.812 6.245 10.964 0.048 0.005 0.11 0.001 0.154 0.006 2.633 0.336 8.014-6.09 8.246-10.246z"/>
<path fill="#333" d="m42.058 126.36c0.256 0 0.509 0.022 0.751 0.065 4.163 0.742 7.535 1.229 9.768 1.552 0.649 0.094 1.216 0.176 1.656 0.243 1.209 1.176 3.469 4.802 2.887 7.326-0.45 1.95-1.917 6.484-5.821 6.484l-0.115-0.001c-0.931-0.019-1.793-0.028-2.606-0.037-3.643-0.039-6.049-0.064-9.266-0.922-2.575-0.688-5.656-4.984-5.316-7.413 0.443-3.186 4.434-7.297 8.062-7.297m-0.001-4c-5.723 0-11.324 5.732-12.024 10.744-0.63 4.513 3.766 10.634 8.245 11.831 4.48 1.195 7.525 0.987 12.825 1.094 0.065 0.001 0.13 0.002 0.195 0.002 5.186 0 8.483-4.228 9.719-9.585 1.251-5.426-3.892-11.775-5.39-12.05-1.502-0.271-5.927-0.805-12.116-1.908-0.484-0.087-0.969-0.128-1.454-0.128z"/>
<path d="m58.319 151.24s-5.518 6.235-4.5 9.25c2.25 6.666 12.75 4.5 19.75 4.75s24.25-1.25 30.75-1.5 3.75-4.75-9.25-4.25-26.25 1.25-27-0.5 1.75-5.25 2.25-6.75-12-1-12-1z" stroke="#333" stroke-miterlimit="10" stroke-width="2" fill="#58b6b4"/>
<polygon points="155.91 44.259 165.41 18.764 177.42 42.007 179.78 153.11 173.2 157.5 167.14 157.5 162.06 155.72" fill="#fef7ce"/>
<path fill="#333" d="m165.7 23.696 9.724 18.817 2.327 109.54-5.165 3.444h-5.109l-3.499-1.225-6.049-109.71 7.771-20.87m-0.596-9.864-11.216 30.12 6.242 113.21 6.666 2.333h7l8-5.333-2.394-112.67-14.298-27.668z"/>
<path d="m155.1 44.277c3.736 0.229 6.125 3.234 6.898 6.431 3.492-2.896 6.471-2.814 10.448-0.984 1.176-4.688 2.393-6.001 5.974-7.798" stroke="#333" stroke-miterlimit="10" stroke-width="2" fill="none"/>
<path fill="#333" d="m165.11 13.832-6.39 17.158s4.02 3.175 7.606 2.674c3.587-0.502 6.583-4.739 6.583-4.739l-7.799-15.093z"/>
<line stroke-width="2" y2="72.985" y1="154.74" stroke="#333" stroke-linecap="round" stroke-miterlimit="10" x2="163.16" x1="166.82" fill="none"/>
<line stroke-width="2" y2="71.937" y1="154.99" stroke="#333" stroke-linecap="round" stroke-miterlimit="10" x2="172.25" x1="173.57" fill="none"/>
<g stroke="#333" stroke-width="4" stroke-miterlimit="10">
<polygon points="237.81 195.49 228.57 218.16 144.14 195.49 149.3 179.09" fill="#535454"/>
<path d="m309.56 240.61-80.993-22.457s-4.334-5.666-1.334-13.666 10.575-9 10.575-9l78.55 15.702-6.798 29.421z" fill="#bb4d67"/>
<ellipse rx="11.5" ry="15.166" transform="matrix(.9862 .1658 -.1658 .9862 41.746 -48.631)" cy="225.66" cx="312.08" fill="#cf627c"/>
</g>
<polygon stroke="#333" points="293.61 249.86 279.32 272.96 144.14 195.49 146.44 185.76" stroke-miterlimit="10" stroke-width="4" fill="#535454"/>
<ellipse rx="13" ry="13.621" stroke="#333" transform="matrix(-.8132 -.582 .582 -.8132 368.41 642.03)" cy="261.89" cx="287.24" stroke-miterlimit="10" stroke-width="4" fill="#f77f5b"/>
<path fill="#fcc865" d="m283.32 259.08c3.148-4.394 8.507-5.95 11.97-3.474 3.458 2.477 3.711 8.048 0.561 12.443-3.148 4.396-8.507 5.949-11.97 3.476-3.46-2.478-3.711-8.047-0.561-12.445z"/>
<ellipse rx="13" ry="13.621" stroke="#333" transform="matrix(-.8132 -.582 .582 -.8132 368.41 642.03)" cy="261.89" cx="287.24" stroke-miterlimit="10" stroke-width="4" fill="none"/>
<polygon stroke-linejoin="round" stroke="#333" points="265.92 289.11 245.4 306.58 147.38 206.25 147.64 190.5" stroke-miterlimit="10" stroke-width="4" fill="#535454"/>
<ellipse rx="11.093" ry="13.62" stroke="#333" transform="matrix(-.6307 -.776 .776 -.6307 185.37 683.63)" cy="297.7" cx="255.35" stroke-miterlimit="10" stroke-width="4" fill="#4ba7af"/>
<ellipse rx="8.96" transform="matrix(-.6306 -.7761 .7761 -.6306 186.98 690.36)" ry="11.001" cy="300.68" cx="257.77" fill="#58b6b4"/>
<ellipse rx="11.093" ry="13.62" stroke="#333" transform="matrix(-.6307 -.776 .776 -.6307 185.37 683.63)" cy="297.7" cx="255.35" stroke-miterlimit="10" stroke-width="4" fill="none"/>
<path d="m169.14 172.5s1.979 86.056 0.494 110.8c-1.484 24.742-6.044 43.325-12.429 43.38-6.388 0.054-13.68-24.663-14.076-47.266-0.398-22.603 6.521-102.58 6.521-102.58l19.49-4.331z" stroke="#333" stroke-miterlimit="10" stroke-width="4" fill="#535454"/>
<path fill="#333" d="m157.49 317.99c3.599 0.171 3.13 4.602 1.495 8.549-1.213 2.93-3.322 2.046-4.482-0.558s-0.498-8.156 2.987-7.991z"/>
<g stroke="#333" stroke-miterlimit="10">
<path d="m98.458 187.88c-11.5 13.349-29.57 48.856-27.854 60.606s15.466 28.438 24.716 22.219 25.75-22.219 39.75-52.969 14.576-40.909 14.576-40.909l-51.188 11.053z" stroke-width="4" fill="#bb4d67"/>
<path d="m96.236 187.88s13-4.821 21.5 3.894 13.27 38.713 13.27 38.713" stroke-width="8" fill="none"/>
<path d="m78.902 235.49c12.761-6.187 20.333 9 22 14.667s1.668 18.999-7.666 21.333-16.666-5-20-13.333-5.334-17.334 5.666-22.667z" stroke-width="4" fill="#cf627c"/>
<path d="m103.07 235.49s3.75 1 7-2 14.25-26.25 17.75-27.5 6.5 6.75 6.5 14.75-4.5 14.75-10.75 23.5-10.25 9.75-13.25 10-1.75-7.5-3.75-11.75-3.5-7-3.5-7z" stroke-width="4" fill="#cf627c"/>
</g>
<polygon stroke="#333" points="81.056 191.64 79.235 164.54 164.14 161 168.88 175" stroke-miterlimit="10" stroke-width="4" fill="#535454"/>
<ellipse rx="13" ry="13.621" stroke="#333" cy="178.16" cx="79.235" stroke-miterlimit="10" stroke-width="4" fill="#f77f5b"/>
<ellipse rx="10.5" ry="11" cy="178.16" cx="74.735" fill="#fcc865"/>
<ellipse rx="13" ry="13.621" stroke="#333" cy="178.16" cx="79.235" stroke-miterlimit="10" stroke-width="4" fill="none"/>
<path d="m162.91 159.26s-3.813 5.185-4.271 7.897c-0.458 2.711 9.64 11.538 14.275 11.936 2.275 0.195 6.535-2.67 8.264-3.898s-18.268-15.935-18.268-15.935z" stroke="#333" stroke-miterlimit="10" stroke-width="4" fill="#d6d6d6"/>
<path d="m188.77 134.22c4.804-2.411 19.268 10.019 16.841 16.37-2.426 6.35-22.47 24.937-24.441 24.604-1.973-0.333-19.151-12.703-18.268-15.934 0.885-3.232 20.327-22.259 25.868-25.04z" stroke="#333" stroke-miterlimit="10" stroke-width="4" fill="#e2e2e2"/>
<path fill="#fff" d="m188.17 135.81s-6.454 18.179-7.18 24.479c-0.727 6.3-1.129 14.684-1.129 14.684s25.141-18.74 24.826-24.877c-0.314-6.139-9.934-17.23-16.517-14.286z"/>
<path d="m192.09 135.99c8.4275-4.2296 33.801 17.576 29.544 28.717-4.2559 11.14-39.418 43.746-42.876 43.162-3.4612-0.58418-33.596-22.285-32.047-27.953 1.5525-5.6698 35.659-39.048 45.379-43.927z" stroke="#333" stroke-miterlimit="10" stroke-width="7.0171" fill="none"/>
</g>
<g transform="matrix(.52416 -.14045 .14045 .52416 1410.7 685.63)">
<path fill="#bb4d67" d="m11.712 283.7v-262.59c1.096-1.107 4.235-3.768 9.144-3.768 5.596 0 8.3 2.623 9.144 3.648v262.72l-8.983 22.697-9.305-22.71z"/>
<path fill="#333" d="m20.856 19.34c3.967 0 6.168 1.512 7.144 2.439v261.55l-7.015 17.727-7.272-17.75v-261.32c1.219-1.043 3.659-2.642 7.143-2.642m0-4c-7.19 0-11.144 5-11.144 5v263.75l11.337 27.67 10.951-27.68v-263.75s-3-5-11.144-5z"/>
<path fill="#e2e2e2" d="m11.712 302.7v-262.59c1.096-1.107 4.235-3.768 9.144-3.768 5.596 0 8.3 2.623 9.144 3.648v262.72l-8.983 22.697-9.305-22.71z"/>
<path fill="#333" d="m20.856 38.34c3.967 0 6.168 1.512 7.144 2.439v261.55l-7.015 17.727-7.272-17.75v-261.32c1.219-1.043 3.659-2.642 7.143-2.642m0-4c-7.19 0-11.144 5-11.144 5v263.75l11.337 27.67 10.951-27.68v-263.75s-3-5-11.144-5z"/>
<path d="m11.375 45.715s4.213-3.375 9.481-3.375 9.269 3.375 9.269 3.375" stroke="#616263" stroke-miterlimit="10" stroke-width="2" fill="none"/>
<path d="m11.375 49.715s4.213-3.375 9.481-3.375 9.269 3.375 9.269 3.375" stroke="#616263" stroke-miterlimit="10" stroke-width="2" fill="none"/>
<path fill="#333" d="m20.856 38.34c3.967 0 6.168 1.512 7.144 2.439v261.55l-7.015 17.727-7.272-17.75v-261.32c1.219-1.043 3.659-2.642 7.143-2.642m0-4c-7.19 0-11.144 5-11.144 5v263.75l11.337 27.67 10.951-27.68v-263.75s-3-5-11.144-5z"/>
<polygon points="11.712 329.7 11.712 67.402 17.736 63.34 23.661 63.34 30 67.43 30 329.71 21.017 352.41" fill="#fef7ce"/>
<path fill="#333" d="m23.072 65.34 4.928 3.18v260.81l-7.015 17.727-7.272-17.75v-260.84l4.636-3.127h4.723m1.178-4h-7.125l-7.413 5v263.75l11.337 27.67 10.951-27.67v-263.75l-7.75-5z"/>
<path fill="#fcc865" d="m32 66.34v263.75s-3.756-1.068-4.531-1.902c-0.851-0.916-1.969-5.098-1.969-5.098s-3.249 1.918-4.332 1.949c-1.011 0.029-4.043-1.699-4.043-1.699s-1.752 3.848-2.683 4.695c-0.922 0.84-4.73 2.055-4.73 2.055v-263.75l7.413-5h7.125l7.75 5z"/>
<path fill="#333" d="m23.072 65.34 4.928 3.18v260.81l-7.015 17.727-7.272-17.75v-260.84l4.636-3.127h4.723m1.178-4h-7.125l-7.413 5v263.75l11.337 27.67 10.951-27.67v-263.75l-7.75-5z"/>
<path d="m31 330.09c-3.729-0.324-4.81-3.785-5.5-7-3.125 2.5-5.125 2.625-8.375 0.25-1.625 4.375-2.75 5.213-6.375 6.918" stroke="#333" stroke-miterlimit="10" stroke-width="2" fill="none"/>
<path fill="#333" d="m21.049 357.76 5.951-15.29s-1.583-3.713-5.951-3.713c-4.299 0-6.049 3.713-6.049 3.713l6.049 15.287z"/>
<line stroke-width="2" y2="269.34" y1="63.34" stroke="#333" stroke-linecap="round" stroke-miterlimit="10" x2="17.125" x1="17.125" fill="none"/>
<line stroke-width="2" y2="269.34" y1="63.34" stroke="#333" stroke-linecap="round" stroke-miterlimit="10" x2="24.125" x1="24.125" fill="none"/>
</g>
<g transform="matrix(.31841 .20857 -.20857 .31841 142.45 717.31)">
<path fill="#fcc865" d="m14.678 95.537c-2.809 0-5.094-2.28-5.094-5.084v-70.832c0-2.803 2.285-5.084 5.094-5.084h670.81c2.809 0 5.093 2.281 5.093 5.084v70.832c0 2.804-2.284 5.084-5.093 5.084h-670.81z"/>
<path fill="#333" d="m685.49 16.537c1.705 0 3.093 1.383 3.093 3.084v70.832c0 1.701-1.388 3.084-3.093 3.084h-670.81c-1.706 0-3.094-1.383-3.094-3.084v-70.832c0-1.701 1.388-3.084 3.094-3.084h670.81m0-4h-670.81c-3.918 0-7.094 3.172-7.094 7.084v70.832c0 3.912 3.176 7.084 7.094 7.084h670.81c3.917 0 7.093-3.172 7.093-7.084v-70.832c0-3.912-3.176-7.084-7.093-7.084z"/>
<g stroke="#333" stroke-miterlimit="10" fill="none">
<g stroke-width="4">
<line y2="35.537" y1="13.506" x2="27.585" x1="27.585"/>
<line y2="35.537" y1="13.506" x2="99.584" x1="99.584"/>
<line y2="35.537" y1="13.506" x2="171.58" x1="171.58"/>
<line y2="35.537" y1="13.506" x2="243.58" x1="243.58"/>
<line y2="35.537" y1="13.506" x2="315.58" x1="315.58"/>
<line y2="35.537" y1="13.506" x2="387.58" x1="387.58"/>
<line y2="35.537" y1="13.506" x2="459.58" x1="459.58"/>
<line y2="35.537" y1="13.506" x2="531.58" x1="531.58"/>
<line y2="35.537" y1="13.506" x2="603.58" x1="603.58"/>
<line y2="35.537" y1="13.506" x2="675.58" x1="675.58"/>
</g>
<g stroke-width="2">
<line y2="35.537" y1="13.506" x2="63.585" x1="63.585"/>
<line y2="27.537" y1="13.506" x2="45.585" x1="45.585"/>
<line y2="27.537" y1="13.506" x2="81.585" x1="81.585"/>
<line y2="35.537" y1="13.506" x2="135.59" x1="135.59"/>
<line y2="27.537" y1="13.506" x2="117.58" x1="117.58"/>
<line y2="27.537" y1="13.506" x2="153.59" x1="153.59"/>
<line y2="35.537" y1="13.506" x2="207.59" x1="207.59"/>
<line y2="27.537" y1="13.506" x2="189.59" x1="189.59"/>
<line y2="27.537" y1="13.506" x2="225.59" x1="225.59"/>
<line y2="35.537" y1="13.506" x2="279.58" x1="279.58"/>
<line y2="27.537" y1="13.506" x2="261.58" x1="261.58"/>
<line y2="27.537" y1="13.506" x2="297.58" x1="297.58"/>
<line y2="35.537" y1="13.506" x2="351.58" x1="351.58"/>
<line y2="27.537" y1="13.506" x2="333.58" x1="333.58"/>
<line y2="27.537" y1="13.506" x2="369.58" x1="369.58"/>
<line y2="35.537" y1="13.506" x2="423.58" x1="423.58"/>
<line y2="27.537" y1="13.506" x2="405.58" x1="405.58"/>
<line y2="27.537" y1="13.506" x2="441.58" x1="441.58"/>
<line y2="35.537" y1="13.506" x2="495.58" x1="495.58"/>
<line y2="27.537" y1="13.506" x2="477.58" x1="477.58"/>
<line y2="27.537" y1="13.506" x2="513.59" x1="513.59"/>
<line y2="35.537" y1="13.506" x2="567.59" x1="567.59"/>
<line y2="27.537" y1="13.506" x2="549.59" x1="549.59"/>
<line y2="27.537" y1="13.506" x2="585.59" x1="585.59"/>
<line y2="35.537" y1="13.506" x2="639.59" x1="639.59"/>
<line y2="27.537" y1="13.506" x2="621.59" x1="621.59"/>
<line y2="27.537" y1="13.506" x2="657.59" x1="657.59"/>
</g>
</g>
</g>
<g transform="matrix(.55537 0 0 .55537 1485.5 569.76)">
<path d="m335.16 174.16c0 89.236-72.337 161.58-161.58 161.58-89.238 0-161.58-72.339-161.58-161.58 0-89.235 72.337-161.57 161.58-161.57 89.238 0 161.58 72.339 161.58 161.57z" stroke="#333" stroke-miterlimit="10" stroke-width="4" fill="#fff"/>
<circle cy="174.16" cx="173.59" r="142.04" fill="#e2e2e2"/>
<path d="m268.79 203.89s31.838 21.692 36.595 24.605c4.774 2.912 4.692 7.065 3.831 8.711l-8.099 15.469c-0.856 1.644-4.228 4.081-9.336 1.823-5.113-2.258-41.076-16.043-41.076-16.043l18.085-34.565z" stroke="#333" stroke-miterlimit="10" stroke-width="4" fill="#fff"/>
<circle stroke-width="4" stroke="#333" cy="174.16" cx="173.59" stroke-miterlimit="10" r="100.61" fill="#fff"/>
<path fill="#e2e2e2" d="m264.14 174.16c0 50.016-40.543 90.556-90.556 90.556s-90.557-40.541-90.557-90.556 40.544-90.552 90.557-90.552 90.556 40.537 90.556 90.552z"/>
<path fill="#261c0b" d="m255.26 174.16c0 45.113-36.572 81.673-81.676 81.673s-81.674-36.56-81.674-81.673 36.57-81.674 81.674-81.674 81.676 36.561 81.676 81.674z"/>
<path fill="#fcc865" d="m249.67 184.47c0.562-3.747 0.854-7.577 0.854-11.479 0-42.499-34.45-76.939-76.94-76.939-42.489 0-76.939 34.441-76.939 76.939 0 14.241 3.885 27.57 10.628 39.007 1.144-1.893 2.491-4.284 2.38-7.042-0.188-4.831-0.188-2.972-0.188-4.831 0-1.858-1.486-8.736 0-11.522 1.484-2.792 4.467-4.849 4.095-9.583-0.375-4.732-2.233-6.588-0.375-10.861 1.858-4.278-1.3-8.177-2.235-9.849-0.924-1.673-1.367-7.476-0.924-9.665 1.578-7.809 11.52-3.903 13.941-6.321 2.409-2.414 1.113-6.872 0.365-10.963-0.739-4.089-2.505-12.361 3.719-13.567 6.223-1.207 9.661-2.787 9.661-2.787 4.468-3.158 7.065-0.372 9.674-1.116 2.595-0.742 7.052-7.806 12.257-9.106 5.205-1.305 10.75 3.383 12.343 3.454 8.176 0.372 7.729-4.01 12.196-3.08 4.457 0.927 10.223 4.114 13.754 4.75 3.521 0.637 9.1 1.008 12.633 3.796 3.533 2.792 14.13 9.667 18.212 14.499 4.092 4.832 5.949 7.801 5.949 11.334s-0.185 5.765 1.488 7.618c1.675 1.859-0.56 4.836 1.675 8.367 1.482 2.348 1.971 2.553 2.144 2.433 0.048-0.132 0.079-0.207 0.079-0.207s-0.002 0.146-0.079 0.207c-0.343 0.856-1.533 4.25 0.079 6.67 1.859 2.788 5.349 4.415 6.112 7.038 0.765 2.626 4.484 5.414 3.737 8.944-0.195 0.92-0.271 2.308-0.295 3.862zm-149.96 4.689c-1.297-0.928-0.288-4.581 1.021-4.461 1.027 0.095 2.515 0.746 2.701 2.418 0.184 1.674-2.422 2.974-3.722 2.043zm6.318 2.137c0.372 1.394-2.046 2.51-3.251 2.51-1.207 0-0.385-4.039 0.559-4.276 1.112-0.278 2.318 0.373 2.692 1.766zm0.561-6.503c2.411 0 2.044 1.393 1.578 2.786-0.466 1.398-2.046 1.857-2.513-0.092-0.457-1.949 0.02-2.694 0.935-2.694zm-3.156 10.781c1.017-0.466 1.95-0.933 3.718-1.21 1.757-0.276 0.551 2.23 0.458 4.738-0.095 2.51-2.319-0.185-4.457-0.555-2.14-0.373-0.527-2.612 0.281-2.973zm3.811 10.589c-1.027 0.747-2.982-3.065-3.076-4.644-0.094-1.58 2.143-0.188 3.814 0.187 1.672 0.371 1.354 2.937-0.738 4.457zm0.551-26.484c-1.3 2.789-5.577 2.789-7.522 2.694-1.952-0.089-3.53-5.294-2.887-9.104 0.651-3.811 4.558-5.298 4.558-5.298 2.225-0.558 2.786 0.652 5.57 2.787 2.795 2.138 1.58 6.135 0.281 8.921zm4.094-12.081c0.374 0.655-1.215 1.953-2.42 1.953s-0.072-2.335 0.561-2.693c1.299-0.743 1.483 0.094 1.859 0.74zm-1.86-4.458c0 1.766-3.064 5.112-4 4.18-0.922-0.927-3.156 0.372-4.734-3.067-1.58-3.438-1.207-5.065 1.578-7.061 0.654-0.463 1.297-0.555 2.605-0.648 1.3-0.094 4.551 4.831 4.551 6.596zm2.413-22.304c-1.491 0.748-3.164-6.343-1.021-6.875 0.748-0.187 2.97 1.206 4.092 2.79 1.113 1.579-1.577 3.344-3.071 4.085zm5.023-4.643c-1.951-0.281-3.903-3.439-3.998-5.486-0.092-2.042 3.814-2.97 4.83-3.623 1.018-0.646 2.784 5.203 2.513 6.603-0.279 1.391-1.969 2.701-3.345 2.506zm6.318 1.392c0.646 0.375-0.28 3.067-2.141 4.272-1.858 1.213-2.551-2.603-2.689-4.367-0.093-1.11 1.486-0.926 1.578-1.392 0.094-0.464 2.6 1.114 3.252 1.487zm24.928-26.971c-2.3 1.047-5.229 0.907-5.925 0-0.697-0.903 0.559-5.086 0.559-5.086 2.784-2.506 9.611-5.574 9.756-2.506 0.136 3.064-2.096 6.549-4.39 7.592zm5.918-6.2c-1.324 0.629 0-1.953 0.417-3.345 0 0 1.536-0.418 2.231 0.666 0.699 1.087-1.324 2.052-2.648 2.679zm19.936-7.387c1.256-0.136 0.831 0.834 0 2.227-0.843 1.397-2.298 0.011-2.298-1.113 0.001-0.977 1.04-0.977 2.298-1.114zm-7.25 5.72c-1.528-1.664 1.188-4.607 1.815-4.607 2.369 0 1.111 1.393 2.504 2.848 1.393 1.457 0.137 2.448 0 3.522-0.134 1.073-2.782-0.096-4.319-1.763zm5.296 3.197c-1.809-0.417-0.218-1.527 0.977-3.197 1.162-1.623 1.953-3.494 3.346-4.607 1.392-1.113 2.233 3.486 2.369 6.209 0.144 2.721-4.881 2.018-6.692 1.595zm13.101-2.157c-0.829 0.279-2.72 0.136-4.243-0.56-1.539-0.696-2.608-3.542-1.682-4.391 0.839-0.764 2.725-0.417 3.77-0.627 1.044-0.204 2.648 1.745 3.48 2.58 0.84 0.837-0.484 2.717-1.325 2.998zm8.134 2.206c-1.484 0-3.621-2.906-2.047-3.625 3.251-1.486 5.018 0.654 5.298 1.489 0.281 0.837-1.766 2.136-3.251 2.136zm12.218 0.026c0.417-0.075 0.696-0.352 1.605-0.352 0.908 0 0.481 0.557 1.111 1.464s-1.528 0.908-1.953 0.908c-0.415 0-1.378-1.919-0.763-2.02zm-2.582 3.412c-0.696 0.839-1.179-0.347-2.223-0.837-1.044-0.487-0.709-3.307 0.483-3.273 2.368 0.069 3.142 1.53 3.692 2.159 0.562 0.626-1.246 1.114-1.952 1.951zm3.557 1.536c-1.46-0.281-1.774-1.705-1.604-1.883 1.046-1.045 0.696-0.418 1.817-0.49 1.111-0.071 2.37 0.77 2.302 1.118-0.079 0.348-1.054 1.531-2.515 1.255zm29.64 32.756c-0.739-1.768-0.739-4.959 1.028-5.483 1.849-0.561 3.156 0.37 4.549 2.69 0.853 1.419 0.748 3.813-0.832 4.558-1.588 0.74-3.998 0.001-4.745-1.765zm1.298 8.456c-0.737-2.885 1.18-5.007 2.047-5.299 1.122-0.372 0.747 0.094 2.327 0.094 1.579 0 3.439 3.251 3.53 4.739 0.094 1.487-0.466 4.087-2.23 4.645-1.769 0.558-4.927-1.299-5.674-4.179zm8.281 15.05c-0.938 0.838-3.813-1.67-4.934-3.994-1.113-2.326 0.553-4.418 2.604-4.646 0.839-0.092 1.205 0 2.329 0.557 1.111 0.558 2.035 2.23 2.316 3.903 0.28 1.671-1.392 3.345-2.315 4.18z"/>
</g>
<g transform="matrix(.55021 0 0 .55021 154.59 710.93)">
<g stroke="#333" stroke-miterlimit="10">
<path d="m225.61 135.18s12.371 47.507 6.827 81.706c-12.096 74.623-196.12 101.3-154-97.377 35.333-166.67 297.33-81.667 188 108.67-109.34 190.32-296.01-120.9-158.67-167.23 137.33-46.333 204 81.31 106.66 155.93-97.33 74.62-215.33-59.38-86.66-144.04 128.66-84.669 188.66 74.66 176.33 123.33-12.334 48.667-187 157.44-225-49.612s264-67.779 192 46.583-196.41 115.82-220.08 26.15" stroke-width="4" fill="none"/>
<path d="m187.77 216.88s19.477 80.759-40.667 98.623c-50.5 15-128.5-18.068-96-133.78 32.5-115.72 70.72-146.88 155.69-135.55 84.976 11.334 100.98 202-31.691 218s-151.67-199-27.78-202c30.459-0.738 51.36 26 51.36 26-46.25-44.175-170.55-29.376-128.86 121.06 44.61 160.94 239.28 47.61 219.28-40.39s-58-132-155-112-12.915 290.59 94.333 220.67c75.67-49.34-33.79-119.42-33.79-119.42" stroke-width="3" fill="none"/>
<g stroke-width="4">
<circle cy="127.84" cx="141.77" r="26" fill="#535454"/>
<path d="m195.48 151.98c1.457 0.79 1.997 2.611 1.207 4.067l-2.86 5.274c-0.79 1.457-2.611 1.997-4.067 1.208l-47.03-25.504c-1.457-0.79-1.997-2.611-1.208-4.067l2.86-5.274c0.79-1.457 2.611-1.997 4.067-1.207l47.031 25.503z" fill="#616263"/>
<path d="m194.43 210.17c-0.667-2.333-13-37-18.667-47s-21-7.667-24.333-8c-0.448-0.045-0.921-0.102-1.403-0.167-3.999-5.609-9.533-8.91-15.348-8.392-10.452 0.931-17.843 13.837-16.508 28.828 1.335 14.99 10.891 26.388 21.342 25.457 8.694-0.774 15.264-9.836 16.463-21.489 0.299-0.528 0.571-0.967 0.787-1.237 1.333-1.667 5.333-2 8.667 0s13.333 33 14 35c0.803 2.409 1.333 4 3 3.667s9-3 10.333-3.333 2.334-1.001 1.667-3.334z" fill="#535454"/>
</g>
</g>
<path fill="#333" d="m144.02 174.07c-1.11-12.462-7.903-22.434-16.167-24.91-6.632 4.613-10.702 14.836-9.683 26.281 1.11 12.462 7.903 22.434 16.167 24.91 6.633-4.613 10.702-14.836 9.683-26.281z"/>
<path fill="#fcc865" d="m38.574 185.92c-1.913-6.653-4.694-16.608-4.76-17.646 0.003-0.103 0.046-0.174 0.287-0.444 0.355-0.396 1.094-1.222 0.384-2.558-0.941-1.769-1.907-4.198-1.826-5.04 0.118-1.223 0.907-3.346 1.353-3.889 0.465 0.141 1.812 1.289 2.983 2.769 0.443 0.561 0.83 2.764 0.92 5.239 0.055 1.512 1.108 1.855 1.615 2.02 0.344 0.112 0.417 0.152 0.485 0.265 0.449 0.906 3.036 10.913 4.718 17.628l-6.159 1.656z"/>
<path fill="#333" d="m34.371 157.8c0.536 0.453 1.229 1.157 1.823 1.907 0.281 0.438 0.637 2.352 0.722 4.677 0.079 2.184 1.716 2.743 2.285 2.928 0.602 1.751 2.538 9.134 4.324 16.238l-4.26 1.146c-1.81-6.319-4.028-14.307-4.404-16.216 0.399-0.446 1.535-1.75 0.508-3.68-0.92-1.729-1.736-3.866-1.713-4.474 0.062-0.661 0.394-1.747 0.715-2.526m-0.489-2.462c-0.077 0-0.151 0.01-0.221 0.03-0.799 0.237-1.861 3.348-1.998 4.765s1.416 4.625 1.938 5.606c0.676 1.27-0.765 1.327-0.788 2.542s5.071 18.856 5.071 18.856l8.057-2.167s-4.442-17.817-5.071-18.856-1.904-0.366-1.956-1.804c-0.041-1.111-0.252-4.706-1.135-5.822-0.751-0.949-2.736-3.151-3.897-3.15z"/>
<path d="m46.946 182.95c-0.142-1.17-1.083 0.464-5.429 1.633-3.705 0.996-6.141 0.27-5.677 1.354 0.464 1.083 3.963 16.021 4.619 16.535s2.964 0.756 3.181 1.561 3.766 14.002 4.025 14.968c0.226 0.838 1.742 0.678 2.876 0.424l0.003 0.01c0.074-0.02 0.159-0.046 0.24-0.069 0.082-0.021 0.168-0.041 0.243-0.061l-0.002-0.01c1.108-0.349 2.5-0.971 2.275-1.809-0.26-0.966-3.809-14.163-4.025-14.968s1.66-2.172 1.969-2.945c0.309-0.776-4.156-15.453-4.298-16.623z" stroke="#333" stroke-miterlimit="10" stroke-width="4" fill="#535454"/>
<path d="m229.19 131.1c0.794 1.454 0.259 3.276-1.195 4.07l-5.266 2.876c-1.454 0.794-3.276 0.259-4.071-1.195l-25.65-46.957c-0.794-1.454-0.259-3.277 1.194-4.071l5.266-2.876c1.454-0.794 3.277-0.26 4.071 1.195l25.647 46.954z" stroke="#333" stroke-miterlimit="10" stroke-width="4" fill="#535454"/>
</g>
</g>
</svg>
