<?xml version="1.0" standalone="no"?>
<!DOCTYPE svg PUBLIC "-//W3C//DTD SVG 20010904//EN"
 "http://www.w3.org/TR/2001/REC-SVG-20010904/DTD/svg10.dtd">
<svg version="1.0" xmlns="http://www.w3.org/2000/svg"
 width="610.000000pt" height="610.000000pt" viewBox="0 0 610.000000 610.000000"
 preserveAspectRatio="xMidYMid meet">
<metadata>
Created by potrace 1.11, written by Peter Selinger 2001-2013
</metadata>
<g transform="translate(0.000000,610.000000) scale(0.100000,-0.100000)"
fill="#000000" stroke="none">
<path d="M980 6060 c-25 -22 -88 -68 -140 -103 -52 -34 -99 -65 -105 -70 -5
-4 -41 -31 -80 -59 -70 -52 -181 -158 -200 -190 -13 -24 -21 -17 -94 85 -34
48 -66 85 -70 83 -13 -8 -50 -89 -78 -171 -20 -60 -27 -100 -27 -161 -1 -73 2
-87 36 -155 20 -40 47 -87 60 -104 51 -65 208 -215 293 -278 50 -37 95 -70
100 -75 6 -4 46 -32 90 -62 44 -29 82 -57 83 -62 2 -4 9 -8 15 -8 7 -1 27 -14
46 -30 26 -22 31 -31 19 -35 -22 -9 -56 7 -195 93 -71 43 -144 88 -163 98 -19
10 -38 24 -42 29 -4 6 -8 6 -8 1 0 -5 -8 -2 -17 6 -10 9 -40 27 -68 42 -27 14
-63 37 -78 50 -16 14 -32 26 -37 28 -16 6 -60 82 -60 104 0 37 -22 51 -72 45
-42 -6 -43 -7 -49 -51 -13 -92 -4 -222 20 -280 26 -64 111 -210 123 -210 4 0
8 -4 8 -10 0 -5 31 -47 68 -94 37 -46 74 -97 82 -113 8 -15 32 -50 52 -78 20
-27 35 -51 33 -53 -2 -3 -21 9 -42 25 -54 43 -121 75 -128 63 -14 -22 0 -108
27 -167 15 -35 28 -70 28 -80 0 -34 41 -100 98 -158 62 -64 84 -75 297 -149
l100 -35 -77 2 -78 3 0 -38 c0 -83 85 -205 181 -261 40 -23 144 -63 194 -73
19 -5 85 -18 135 -29 14 -2 36 -7 50 -10 33 -7 60 -12 101 -19 116 -19 262
-63 254 -76 -3 -4 -40 -8 -82 -8 -61 -1 -89 4 -128 23 -27 12 -59 26 -70 29
-55 15 -175 29 -175 20 0 -4 22 -48 49 -98 27 -50 59 -120 71 -156 16 -45 34
-76 60 -101 50 -46 169 -104 248 -120 67 -14 83 -11 187 37 28 13 57 24 65 26
30 6 19 -17 -17 -38 -20 -11 -38 -25 -41 -32 -3 -9 60 -52 129 -87 21 -11 26
-31 7 -32 -30 -2 -161 -45 -212 -69 -64 -30 -72 -44 -46 -77 l20 -25 -103 -52
c-126 -65 -266 -152 -291 -179 -18 -20 -18 -21 5 -30 13 -5 33 -12 43 -16 16
-5 3 -18 -70 -71 -49 -36 -101 -73 -116 -82 -16 -9 -28 -20 -28 -24 0 -4 -4
-8 -9 -8 -13 0 -74 -54 -152 -132 -103 -105 -159 -231 -125 -280 20 -28 10
-48 -76 -148 -7 -8 -32 -37 -55 -64 l-43 -50 0 -102 c0 -56 3 -109 6 -118 7
-17 34 -22 34 -6 0 6 7 10 15 10 20 0 19 -10 -14 -120 -15 -52 -27 -108 -25
-125 2 -16 6 -68 8 -115 2 -47 11 -102 19 -123 9 -20 14 -37 12 -37 -2 0 7
-30 21 -67 49 -128 55 -154 49 -184 -8 -34 20 -73 134 -187 87 -87 161 -143
242 -185 114 -59 134 -62 364 -61 215 1 209 0 385 48 8 3 44 14 80 25 36 11
70 21 75 22 6 0 17 5 26 10 9 4 27 10 40 13 51 9 440 160 486 188 19 11 41 37
51 61 48 105 234 236 372 261 66 12 102 39 63 49 -14 3 -11 7 12 16 57 23 120
54 148 73 15 11 27 17 27 13 0 -3 10 1 22 9 38 27 65 21 72 -17 16 -82 26
-117 44 -152 16 -33 86 -105 142 -147 49 -37 147 -88 168 -88 10 0 22 -4 28
-9 30 -28 264 -35 290 -8 4 4 17 7 28 7 41 0 169 82 235 150 79 81 118 150
135 239 13 70 13 83 2 174 -8 65 -20 79 -93 117 -26 13 -77 41 -112 62 -34 21
-65 38 -67 38 -8 0 -89 55 -113 76 -23 21 -23 22 -3 28 84 27 257 38 347 22
75 -13 79 -14 150 -47 72 -33 105 -56 159 -111 66 -66 81 -91 194 -309 127
-247 147 -281 199 -334 168 -174 476 -141 689 73 102 103 124 157 120 298 -3
95 -10 116 -62 180 -32 40 -32 41 -12 55 74 51 75 47 -22 69 -30 7 -62 16 -70
20 -173 82 -166 83 -156 -22 12 -134 30 -223 48 -234 5 -4 27 8 47 24 l38 31
11 -22 c17 -35 44 -174 38 -194 -11 -32 -148 -162 -231 -219 -35 -24 -52 -27
-136 -31 l-96 -4 -50 40 c-89 70 -221 292 -289 486 -18 51 -107 149 -215 237
-41 34 -155 93 -198 104 -9 2 -59 14 -111 28 -165 42 -173 42 -311 2 -150 -42
-160 -44 -276 -55 -85 -7 -95 -10 -142 -47 -110 -85 -376 -254 -400 -254 -5 0
-16 -6 -23 -13 -12 -11 -200 -106 -318 -160 -40 -19 -90 -60 -181 -149 -69
-68 -141 -132 -161 -142 l-35 -19 -38 26 c-23 15 -43 23 -49 18 -135 -104
-420 -301 -478 -330 -30 -15 -58 -9 -58 12 0 8 13 31 30 52 46 58 40 71 -30
65 -14 -1 -57 -19 -96 -41 -101 -55 -302 -121 -385 -124 -62 -3 -71 -1 -129
33 -76 45 -123 87 -118 103 2 7 20 18 39 25 l34 11 -80 37 c-120 55 -190 133
-201 224 -14 116 -17 156 -17 242 0 224 138 532 322 719 127 129 289 204 466
217 39 3 76 7 83 9 8 3 12 -6 12 -24 0 -16 7 -34 16 -42 15 -12 12 -56 -4 -69
-32 -24 -73 -95 -78 -135 -10 -84 -10 -84 126 -113 76 -16 94 -17 170 -5 104
16 160 17 173 4 7 -7 4 -22 -9 -48 -10 -21 -19 -58 -20 -83 -2 -43 18 -100 34
-100 16 0 60 37 143 121 47 47 92 85 100 83 8 -1 38 -24 67 -52 55 -52 78 -57
87 -18 18 80 23 110 19 120 -3 6 -32 26 -64 45 -65 37 -74 57 -39 90 45 41 72
45 131 17 56 -27 88 -33 88 -17 0 5 17 12 37 16 53 10 55 13 36 45 -21 36 -25
38 -138 60 l-90 19 -60 -40 c-109 -72 -235 -128 -290 -130 -27 -1 -55 -1 -62
0 -21 2 -71 104 -68 138 4 49 62 120 162 199 l32 26 67 -27 c128 -51 205 -33
362 84 50 37 92 61 107 61 35 0 121 -45 139 -73 18 -26 16 -43 -6 -77 -21 -31
-17 -79 8 -97 24 -17 39 -16 70 4 24 16 25 18 20 105 -4 48 -3 88 2 88 4 0 37
-29 72 -65 l65 -66 64 6 c104 9 104 10 -1 118 -52 54 -102 97 -111 97 -24 0
-21 26 5 44 31 22 40 20 83 -14 21 -16 43 -30 50 -30 31 0 105 106 90 129 -6
11 -57 26 -120 36 -22 3 -53 8 -70 11 -16 3 -67 7 -112 9 -89 3 -100 -3 -132
-66 -16 -33 -46 -41 -167 -44 -90 -3 -90 -3 -110 26 -10 16 -27 32 -37 35 -29
9 -38 47 -23 104 15 57 34 76 86 86 19 3 51 9 70 14 51 10 91 6 190 -20 19 -5
38 -10 42 -10 4 -1 22 -6 40 -11 18 -6 42 -12 53 -14 11 -3 31 -7 45 -11 79
-18 146 -22 201 -10 33 7 41 4 76 -27 28 -26 43 -33 54 -27 9 5 31 12 49 15
18 3 36 8 40 10 4 2 52 7 107 11 92 6 102 5 120 -13 11 -11 35 -29 54 -39 50
-27 69 -45 69 -63 1 -36 28 -55 85 -57 73 -3 131 15 280 88 42 20 155 65 168
66 4 0 31 3 60 7 146 17 161 14 172 -42 10 -57 45 -132 69 -148 13 -9 44 -15
83 -15 59 0 63 2 63 23 0 12 -9 38 -19 57 -38 67 -51 99 -53 129 -1 17 -6 31
-10 31 -13 0 -9 35 6 65 18 35 75 82 108 90 35 9 58 -5 134 -81 35 -35 75 -69
89 -74 23 -9 75 -14 75 -7 0 16 -64 175 -75 187 -14 15 -11 18 27 29 84 24
158 63 158 83 0 36 -18 56 -47 52 -15 -2 -55 -6 -87 -9 -185 -17 -172 -15
-222 -29 -32 -10 -37 27 -12 76 19 37 35 128 22 128 -9 0 -45 -21 -66 -38 -53
-44 -58 -55 -84 -192 -2 -7 -10 -34 -20 -58 -14 -38 -24 -48 -71 -69 -48 -22
-64 -25 -134 -20 -62 4 -79 2 -79 -9 0 -10 -5 -10 -27 2 -25 12 -28 12 -31 -1
-4 -19 -31 -19 -57 -1 -11 7 -31 17 -45 21 -29 9 -116 47 -176 77 -118 57
-151 144 -114 298 28 118 68 188 134 236 37 26 48 29 116 28 150 -3 273 -49
341 -128 24 -28 27 -29 32 -11 11 34 23 119 32 225 3 36 8 79 11 95 2 17 6 46
8 65 12 98 51 125 127 85 36 -18 54 -23 71 -16 13 5 26 9 31 10 36 4 113 73
102 91 -2 4 -22 5 -42 1 -117 -19 -193 26 -199 117 -4 55 10 76 97 145 61 49
105 67 140 57 35 -10 39 -6 39 48 l0 44 -37 -6 c-58 -8 -102 -26 -168 -68 -61
-40 -114 -49 -106 -18 8 36 9 110 1 115 -8 5 -90 -83 -90 -97 0 -22 -21 -4
-28 25 -7 26 -14 33 -39 35 -31 3 -40 -6 -49 -55 -2 -13 -6 -35 -9 -50 -5 -28
40 -228 55 -248 14 -19 1 -68 -28 -104 -68 -85 -169 -94 -298 -25 -48 26 -96
55 -104 64 -3 4 -15 13 -28 22 -56 38 -150 138 -201 212 -56 81 -91 194 -71
226 5 8 3 25 -7 44 -22 43 -26 103 -8 139 11 22 12 34 4 43 -6 7 -9 34 -6 61
5 45 8 58 24 101 3 9 7 22 8 27 7 29 94 159 144 214 l56 63 45 -24 c65 -35 74
-32 81 27 8 63 46 153 68 159 9 3 29 7 44 10 52 9 154 81 242 170 50 51 111
137 117 166 2 8 6 18 11 21 4 3 10 33 13 67 7 71 -9 89 -47 53 -23 -21 -49
-28 -49 -13 0 4 21 20 46 36 75 47 145 107 142 118 -4 12 -59 18 -183 21 -66
2 -70 1 -73 -20 -3 -17 -10 -23 -30 -23 -39 0 -45 -7 -75 -86 -28 -71 -62
-118 -104 -141 -24 -14 -109 -28 -219 -38 -99 -8 -139 -16 -181 -37 -17 -9
-20 -15 -12 -29 7 -15 2 -26 -25 -54 -19 -19 -45 -39 -59 -44 -30 -12 -127 -5
-141 9 -5 5 -19 10 -30 10 -12 0 -16 -4 -11 -8 15 -11 65 -108 65 -125 0 -20
-29 -29 -88 -26 -38 2 -61 12 -124 55 -48 33 -80 49 -84 43 -9 -15 74 -89 146
-130 34 -19 67 -40 75 -46 7 -7 17 -13 22 -13 12 -1 59 -44 65 -62 8 -19 -10
-47 -68 -108 -151 -158 -151 -158 -158 -227 -4 -48 -3 -52 20 -57 13 -4 24
-13 24 -22 0 -8 -42 -58 -92 -110 -125 -129 -151 -167 -144 -219 3 -22 5 -41
5 -42 1 -2 21 -3 45 -3 34 0 45 -4 49 -19 5 -21 -31 -98 -71 -151 -32 -42
-127 -140 -136 -140 -4 0 -17 -10 -30 -22 -38 -37 -66 -58 -76 -58 -6 0 -10
-3 -10 -7 0 -5 -17 -19 -37 -33 -40 -27 -103 -89 -103 -101 0 -14 98 -94 143
-117 26 -13 47 -29 48 -35 0 -7 2 -22 5 -34 7 -42 -17 -34 -71 22 -29 31 -59
58 -67 59 -42 7 -74 28 -175 112 -158 133 -212 200 -228 284 -8 46 41 164 133
320 68 115 75 135 77 205 3 78 -13 129 -48 158 -20 17 -99 58 -122 63 -48 12
-64 16 -90 19 -59 9 -131 17 -190 20 -179 11 -359 28 -375 35 -3 1 -9 3 -15 4
-55 10 -245 72 -390 129 -197 76 -310 139 -430 241 -154 129 -245 256 -336
466 -35 80 -37 89 -36 190 0 58 6 128 14 156 20 78 80 222 103 246 27 29 33
53 20 78 -9 16 -21 20 -63 20 -47 0 -57 -4 -97 -40z m3483 -926 c3 -4 2 -15
-4 -25 -13 -25 -119 -28 -119 -4 0 9 14 16 38 20 20 4 44 8 52 10 8 1 18 3 21
4 3 0 9 -2 12 -5z m-301 -4127 c81 -31 114 -51 155 -96 80 -87 51 -198 -71
-275 -89 -57 -142 -69 -301 -69 -116 0 -138 5 -233 50 -158 77 -193 214 -79
317 55 48 130 82 207 92 25 4 47 9 50 11 3 3 50 3 105 0 73 -4 119 -12 167
-30z"/>
</g>
</svg>
